{
    "asset" : {
        "generator" : "Khronos glTF Blender I/O v1.8.19",
        "version" : "2.0"
    },
    "scene" : 0,
    "scenes" : [
        {
            "name" : "Scene",
            "nodes" : [
                0
            ]
        }
    ],
    "nodes" : [
        {
            "mesh" : 0,
            "name" : "\u52a8\u8f6603"
        }
    ],
    "materials" : [
        {
            "doubleSided" : true,
            "name" : "Mat3d66-660952-52-2694",
            "pbrMetallicRoughness" : {
                "baseColorFactor" : [
                    0.11764699965715408,
                    0.1450980007648468,
                    0.5098040103912354,
                    1
                ],
                "metallicFactor" : 0,
                "roughnessFactor" : 0.5
            }
        },
        {
            "doubleSided" : true,
            "name" : "Mat3d66-660952-15-4461",
            "pbrMetallicRoughness" : {
                "baseColorFactor" : [
                    0.8470590114593506,
                    0.8470590114593506,
                    0.8470590114593506,
                    1
                ],
                "metallicFactor" : 0,
                "roughnessFactor" : 0.5
            }
        },
        {
            "doubleSided" : true,
            "name" : "Mat3d66-660952-57-4907",
            "pbrMetallicRoughness" : {
                "baseColorFactor" : [
                    0.4156860113143921,
                    0.47058799862861633,
                    0.4666669964790344,
                    1
                ],
                "metallicFactor" : 0,
                "roughnessFactor" : 0.5
            }
        },
        {
            "doubleSided" : true,
            "name" : "dc1",
            "pbrMetallicRoughness" : {
                "baseColorFactor" : [
                    0.800000011920929,
                    0.800000011920929,
                    0.800000011920929,
                    1
                ],
                "metallicFactor" : 0,
                "roughnessFactor" : 0.5
            }
        },
        {
            "doubleSided" : true,
            "name" : "dc2",
            "pbrMetallicRoughness" : {
                "baseColorFactor" : [
                    0.2929515540599823,
                    0.2929515540599823,
                    0.2929515540599823,
                    1
                ],
                "metallicFactor" : 0,
                "roughnessFactor" : 0.5
            }
        },
        {
            "doubleSided" : true,
            "name" : "dc4",
            "pbrMetallicRoughness" : {
                "baseColorFactor" : [
                    0.08984090387821198,
                    0.08984090387821198,
                    0.08984090387821198,
                    1
                ],
                "metallicFactor" : 0,
                "roughnessFactor" : 0.5
            }
        },
        {
            "doubleSided" : true,
            "name" : "dc3",
            "pbrMetallicRoughness" : {
                "baseColorFactor" : [
                    0.4013911783695221,
                    0.4964364767074585,
                    0.5372111201286316,
                    1
                ],
                "metallicFactor" : 0,
                "roughnessFactor" : 0.5
            }
        },
        {
            "doubleSided" : true,
            "name" : "blue",
            "pbrMetallicRoughness" : {
                "baseColorFactor" : [
                    0.062358684837818146,
                    0.09131968021392822,
                    0.5121610164642334,
                    1
                ],
                "metallicFactor" : 0,
                "roughnessFactor" : 0.5
            }
        }
    ],
    "meshes" : [
        {
            "name" : "Obj3d66-660952-244-461.002",
            "primitives" : [
                {
                    "attributes" : {
                        "POSITION" : 0,
                        "NORMAL" : 1,
                        "TEXCOORD_0" : 2,
                        "TEXCOORD_1" : 3,
                        "TEXCOORD_2" : 4
                    },
                    "indices" : 5,
                    "material" : 0
                },
                {
                    "attributes" : {
                        "POSITION" : 6,
                        "NORMAL" : 7,
                        "TEXCOORD_0" : 8,
                        "TEXCOORD_1" : 9,
                        "TEXCOORD_2" : 10
                    },
                    "indices" : 11,
                    "material" : 1
                },
                {
                    "attributes" : {
                        "POSITION" : 12,
                        "NORMAL" : 13,
                        "TEXCOORD_0" : 14,
                        "TEXCOORD_1" : 15,
                        "TEXCOORD_2" : 16
                    },
                    "indices" : 17,
                    "material" : 2
                },
                {
                    "attributes" : {
                        "POSITION" : 18,
                        "NORMAL" : 19,
                        "TEXCOORD_0" : 20,
                        "TEXCOORD_1" : 21,
                        "TEXCOORD_2" : 22
                    },
                    "indices" : 23,
                    "material" : 3
                },
                {
                    "attributes" : {
                        "POSITION" : 24,
                        "NORMAL" : 25,
                        "TEXCOORD_0" : 26,
                        "TEXCOORD_1" : 27,
                        "TEXCOORD_2" : 28
                    },
                    "indices" : 29,
                    "material" : 4
                },
                {
                    "attributes" : {
                        "POSITION" : 30,
                        "NORMAL" : 31,
                        "TEXCOORD_0" : 32,
                        "TEXCOORD_1" : 33,
                        "TEXCOORD_2" : 34
                    },
                    "indices" : 35,
                    "material" : 5
                },
                {
                    "attributes" : {
                        "POSITION" : 36,
                        "NORMAL" : 37,
                        "TEXCOORD_0" : 38,
                        "TEXCOORD_1" : 39,
                        "TEXCOORD_2" : 40
                    },
                    "indices" : 41,
                    "material" : 6
                },
                {
                    "attributes" : {
                        "POSITION" : 42,
                        "NORMAL" : 43,
                        "TEXCOORD_0" : 44,
                        "TEXCOORD_1" : 45,
                        "TEXCOORD_2" : 46
                    },
                    "indices" : 47,
                    "material" : 7
                }
            ]
        }
    ],
    "accessors" : [
        {
            "bufferView" : 0,
            "componentType" : 5126,
            "count" : 65,
            "max" : [
                -32.11932373046875,
                2.6757404804229736,
                1.2587672472000122
            ],
            "min" : [
                -33.89820098876953,
                2.3737471103668213,
                -1.2574244737625122
            ],
            "type" : "VEC3"
        },
        {
            "bufferView" : 1,
            "componentType" : 5126,
            "count" : 65,
            "type" : "VEC3"
        },
        {
            "bufferView" : 2,
            "componentType" : 5126,
            "count" : 65,
            "type" : "VEC2"
        },
        {
            "bufferView" : 3,
            "componentType" : 5126,
            "count" : 65,
            "type" : "VEC2"
        },
        {
            "bufferView" : 4,
            "componentType" : 5126,
            "count" : 65,
            "type" : "VEC2"
        },
        {
            "bufferView" : 5,
            "componentType" : 5123,
            "count" : 222,
            "type" : "SCALAR"
        },
        {
            "bufferView" : 6,
            "componentType" : 5126,
            "count" : 4266,
            "max" : [
                36.18284606933594,
                3.594287872314453,
                1.6551659107208252
            ],
            "min" : [
                -36.180938720703125,
                0.34465575218200684,
                -1.6548322439193726
            ],
            "type" : "VEC3"
        },
        {
            "bufferView" : 7,
            "componentType" : 5126,
            "count" : 4266,
            "type" : "VEC3"
        },
        {
            "bufferView" : 8,
            "componentType" : 5126,
            "count" : 4266,
            "type" : "VEC2"
        },
        {
            "bufferView" : 9,
            "componentType" : 5126,
            "count" : 4266,
            "type" : "VEC2"
        },
        {
            "bufferView" : 10,
            "componentType" : 5126,
            "count" : 4266,
            "type" : "VEC2"
        },
        {
            "bufferView" : 11,
            "componentType" : 5123,
            "count" : 23892,
            "type" : "SCALAR"
        },
        {
            "bufferView" : 12,
            "componentType" : 5126,
            "count" : 212,
            "max" : [
                33.60143280029297,
                3.3902649879455566,
                1.2500132322311401
            ],
            "min" : [
                -33.599525451660156,
                2.5216333866119385,
                -1.2496793270111084
            ],
            "type" : "VEC3"
        },
        {
            "bufferView" : 13,
            "componentType" : 5126,
            "count" : 212,
            "type" : "VEC3"
        },
        {
            "bufferView" : 14,
            "componentType" : 5126,
            "count" : 212,
            "type" : "VEC2"
        },
        {
            "bufferView" : 15,
            "componentType" : 5126,
            "count" : 212,
            "type" : "VEC2"
        },
        {
            "bufferView" : 16,
            "componentType" : 5126,
            "count" : 212,
            "type" : "VEC2"
        },
        {
            "bufferView" : 17,
            "componentType" : 5123,
            "count" : 960,
            "type" : "SCALAR"
        },
        {
            "bufferView" : 18,
            "componentType" : 5126,
            "count" : 708,
            "max" : [
                29.489347457885742,
                3.5623016357421875,
                1.6214940547943115
            ],
            "min" : [
                -29.48744010925293,
                0.3627326488494873,
                -1.5922067165374756
            ],
            "type" : "VEC3"
        },
        {
            "bufferView" : 19,
            "componentType" : 5126,
            "count" : 708,
            "type" : "VEC3"
        },
        {
            "bufferView" : 20,
            "componentType" : 5126,
            "count" : 708,
            "type" : "VEC2"
        },
        {
            "bufferView" : 21,
            "componentType" : 5126,
            "count" : 708,
            "type" : "VEC2"
        },
        {
            "bufferView" : 22,
            "componentType" : 5126,
            "count" : 708,
            "type" : "VEC2"
        },
        {
            "bufferView" : 23,
            "componentType" : 5123,
            "count" : 912,
            "type" : "SCALAR"
        },
        {
            "bufferView" : 24,
            "componentType" : 5126,
            "count" : 1108,
            "max" : [
                29.127443313598633,
                3.86393404006958,
                0.6605080962181091
            ],
            "min" : [
                -28.878591537475586,
                3.551900863647461,
                -0.6627522706985474
            ],
            "type" : "VEC3"
        },
        {
            "bufferView" : 25,
            "componentType" : 5126,
            "count" : 1108,
            "type" : "VEC3"
        },
        {
            "bufferView" : 26,
            "componentType" : 5126,
            "count" : 1108,
            "type" : "VEC2"
        },
        {
            "bufferView" : 27,
            "componentType" : 5126,
            "count" : 1108,
            "type" : "VEC2"
        },
        {
            "bufferView" : 28,
            "componentType" : 5126,
            "count" : 1108,
            "type" : "VEC2"
        },
        {
            "bufferView" : 29,
            "componentType" : 5123,
            "count" : 1560,
            "type" : "SCALAR"
        },
        {
            "bufferView" : 30,
            "componentType" : 5126,
            "count" : 12403,
            "max" : [
                33.900108337402344,
                3.0780296325683594,
                1.6469712257385254
            ],
            "min" : [
                -33.607425689697266,
                0,
                -1.649215579032898
            ],
            "type" : "VEC3"
        },
        {
            "bufferView" : 31,
            "componentType" : 5126,
            "count" : 12403,
            "type" : "VEC3"
        },
        {
            "bufferView" : 32,
            "componentType" : 5126,
            "count" : 12403,
            "type" : "VEC2"
        },
        {
            "bufferView" : 33,
            "componentType" : 5126,
            "count" : 12403,
            "type" : "VEC2"
        },
        {
            "bufferView" : 34,
            "componentType" : 5126,
            "count" : 12403,
            "type" : "VEC2"
        },
        {
            "bufferView" : 35,
            "componentType" : 5123,
            "count" : 15258,
            "type" : "SCALAR"
        },
        {
            "bufferView" : 36,
            "componentType" : 5126,
            "count" : 376,
            "max" : [
                28.881338119506836,
                3.061830520629883,
                1.6469712257385254
            ],
            "min" : [
                -28.829076766967773,
                1.9571990966796875,
                -1.6492154598236084
            ],
            "type" : "VEC3"
        },
        {
            "bufferView" : 37,
            "componentType" : 5126,
            "count" : 376,
            "type" : "VEC3"
        },
        {
            "bufferView" : 38,
            "componentType" : 5126,
            "count" : 376,
            "type" : "VEC2"
        },
        {
            "bufferView" : 39,
            "componentType" : 5126,
            "count" : 376,
            "type" : "VEC2"
        },
        {
            "bufferView" : 40,
            "componentType" : 5126,
            "count" : 376,
            "type" : "VEC2"
        },
        {
            "bufferView" : 41,
            "componentType" : 5123,
            "count" : 528,
            "type" : "SCALAR"
        },
        {
            "bufferView" : 42,
            "componentType" : 5126,
            "count" : 160,
            "max" : [
                28.249881744384766,
                1.878143072128296,
                1.6429243087768555
            ],
            "min" : [
                -28.224905014038086,
                1.8161201477050781,
                -1.6429243087768555
            ],
            "type" : "VEC3"
        },
        {
            "bufferView" : 43,
            "componentType" : 5126,
            "count" : 160,
            "type" : "VEC3"
        },
        {
            "bufferView" : 44,
            "componentType" : 5126,
            "count" : 160,
            "type" : "VEC2"
        },
        {
            "bufferView" : 45,
            "componentType" : 5126,
            "count" : 160,
            "type" : "VEC2"
        },
        {
            "bufferView" : 46,
            "componentType" : 5126,
            "count" : 160,
            "type" : "VEC2"
        },
        {
            "bufferView" : 47,
            "componentType" : 5123,
            "count" : 240,
            "type" : "SCALAR"
        }
    ],
    "bufferViews" : [
        {
            "buffer" : 0,
            "byteLength" : 780,
            "byteOffset" : 0
        },
        {
            "buffer" : 0,
            "byteLength" : 780,
            "byteOffset" : 780
        },
        {
            "buffer" : 0,
            "byteLength" : 520,
            "byteOffset" : 1560
        },
        {
            "buffer" : 0,
            "byteLength" : 520,
            "byteOffset" : 2080
        },
        {
            "buffer" : 0,
            "byteLength" : 520,
            "byteOffset" : 2600
        },
        {
            "buffer" : 0,
            "byteLength" : 444,
            "byteOffset" : 3120
        },
        {
            "buffer" : 0,
            "byteLength" : 51192,
            "byteOffset" : 3564
        },
        {
            "buffer" : 0,
            "byteLength" : 51192,
            "byteOffset" : 54756
        },
        {
            "buffer" : 0,
            "byteLength" : 34128,
            "byteOffset" : 105948
        },
        {
            "buffer" : 0,
            "byteLength" : 34128,
            "byteOffset" : 140076
        },
        {
            "buffer" : 0,
            "byteLength" : 34128,
            "byteOffset" : 174204
        },
        {
            "buffer" : 0,
            "byteLength" : 47784,
            "byteOffset" : 208332
        },
        {
            "buffer" : 0,
            "byteLength" : 2544,
            "byteOffset" : 256116
        },
        {
            "buffer" : 0,
            "byteLength" : 2544,
            "byteOffset" : 258660
        },
        {
            "buffer" : 0,
            "byteLength" : 1696,
            "byteOffset" : 261204
        },
        {
            "buffer" : 0,
            "byteLength" : 1696,
            "byteOffset" : 262900
        },
        {
            "buffer" : 0,
            "byteLength" : 1696,
            "byteOffset" : 264596
        },
        {
            "buffer" : 0,
            "byteLength" : 1920,
            "byteOffset" : 266292
        },
        {
            "buffer" : 0,
            "byteLength" : 8496,
            "byteOffset" : 268212
        },
        {
            "buffer" : 0,
            "byteLength" : 8496,
            "byteOffset" : 276708
        },
        {
            "buffer" : 0,
            "byteLength" : 5664,
            "byteOffset" : 285204
        },
        {
            "buffer" : 0,
            "byteLength" : 5664,
            "byteOffset" : 290868
        },
        {
            "buffer" : 0,
            "byteLength" : 5664,
            "byteOffset" : 296532
        },
        {
            "buffer" : 0,
            "byteLength" : 1824,
            "byteOffset" : 302196
        },
        {
            "buffer" : 0,
            "byteLength" : 13296,
            "byteOffset" : 304020
        },
        {
            "buffer" : 0,
            "byteLength" : 13296,
            "byteOffset" : 317316
        },
        {
            "buffer" : 0,
            "byteLength" : 8864,
            "byteOffset" : 330612
        },
        {
            "buffer" : 0,
            "byteLength" : 8864,
            "byteOffset" : 339476
        },
        {
            "buffer" : 0,
            "byteLength" : 8864,
            "byteOffset" : 348340
        },
        {
            "buffer" : 0,
            "byteLength" : 3120,
            "byteOffset" : 357204
        },
        {
            "buffer" : 0,
            "byteLength" : 148836,
            "byteOffset" : 360324
        },
        {
            "buffer" : 0,
            "byteLength" : 148836,
            "byteOffset" : 509160
        },
        {
            "buffer" : 0,
            "byteLength" : 99224,
            "byteOffset" : 657996
        },
        {
            "buffer" : 0,
            "byteLength" : 99224,
            "byteOffset" : 757220
        },
        {
            "buffer" : 0,
            "byteLength" : 99224,
            "byteOffset" : 856444
        },
        {
            "buffer" : 0,
            "byteLength" : 30516,
            "byteOffset" : 955668
        },
        {
            "buffer" : 0,
            "byteLength" : 4512,
            "byteOffset" : 986184
        },
        {
            "buffer" : 0,
            "byteLength" : 4512,
            "byteOffset" : 990696
        },
        {
            "buffer" : 0,
            "byteLength" : 3008,
            "byteOffset" : 995208
        },
        {
            "buffer" : 0,
            "byteLength" : 3008,
            "byteOffset" : 998216
        },
        {
            "buffer" : 0,
            "byteLength" : 3008,
            "byteOffset" : 1001224
        },
        {
            "buffer" : 0,
            "byteLength" : 1056,
            "byteOffset" : 1004232
        },
        {
            "buffer" : 0,
            "byteLength" : 1920,
            "byteOffset" : 1005288
        },
        {
            "buffer" : 0,
            "byteLength" : 1920,
            "byteOffset" : 1007208
        },
        {
            "buffer" : 0,
            "byteLength" : 1280,
            "byteOffset" : 1009128
        },
        {
            "buffer" : 0,
            "byteLength" : 1280,
            "byteOffset" : 1010408
        },
        {
            "buffer" : 0,
            "byteLength" : 1280,
            "byteOffset" : 1011688
        },
        {
            "buffer" : 0,
            "byteLength" : 480,
            "byteOffset" : 1012968
        }
    ],
    "buffers" : [
        {
            "byteLength" : 1013448,
            "uri" : "data:application/octet-stream;base64,"
        }
    ]
}
